<svg xmlns="http://www.w3.org/2000/svg" version="1.0" viewBox="0 0 280 280">
  <g onload="javascript:alert(1)"></g>
<script>alert(1)</script>
  <path d="M0 140v140h280V0H0v140zM198 23l4 8-3 10-11 32-8 23-2-7-8-21-5-7-8-9-4-5c-1-1 4-6 12-14a148 148 0 0021-25l2-2 4 6 6 11zM94 10l6 8 16 17 11 11-7 8c-8 9-16 24-19 35l-1 7-9-22-10-33-3-12 6-10 6-11c0-2 2-1 4 2zm53 53l9 4 8 2c5 0 5 0 5 3 0 4-1 4-24-1l-9-1c-1 0-5 3-9 8-6 7-8 9-12 10l-4 1 21-26c1-1 5-1 14 1zm-33 19c-10 14-11 15-13 28-1 14-2 16-3 15-1 0-5-16-7-33-3-17-2-18 4-1l5 11 2-4c1-5 11-24 15-29l2-3 1 3c1 3 0 4-6 13zm58 5a141 141 0 017 15l5-10 7-14a589 589 0 01-23 97l-6-21c-5-18-6-22-5-23 5-5 5-8 5-21V97l-3-6c-4-4-4-5-3-9s1-4 10-5c1 0 3 3 6 10zm-20-1c7 7 9 11 3 6-5-5-7-5-20 0l-13 4 2 1c3 1 6 1 14-1 14-3 15-3 19 2 1 2 1 2-1 1l-8 1c-6 2-20 9-21 11l6-2c7-3 19-8 22-8 2 0 5 3 5 6h-1c-1-1-2-1-5 2-5 5-11 8-17 9l-4 1 3 1 4 3c0 2-4 8-7 10-2 1-3 3-4 8l-2 15c0 7 0 9-3 14-4 10-14 17-19 14-2-1-7-7-9-12a514 514 0 0110-73c0-6 1-7 14-10l15-5c8-4 11-4 17 2z"/>
</svg>
